<svg width="18" height="18" viewBox="0 0 18 18" fill="none" xmlns="http://www.w3.org/2000/svg">
<path d="M2.18652 5.27344L3.12059 16.5493C3.18753 17.3624 3.88018 18 4.69643 18H13.3029C14.1191 18 14.8118 17.3624 14.8787 16.5493L15.8127 5.27344H2.18652ZM6.36242 15.8906C6.08637 15.8906 5.85413 15.6759 5.83662 15.3962L5.30928 6.88841C5.29124 6.59746 5.51216 6.34718 5.80263 6.32914C6.10388 6.30802 6.34336 6.53154 6.36189 6.82249L6.88923 15.3303C6.9079 15.6316 6.66951 15.8906 6.36242 15.8906ZM9.52697 15.3633C9.52697 15.6548 9.29111 15.8906 8.99963 15.8906C8.70815 15.8906 8.47229 15.6548 8.47229 15.3633V6.85547C8.47229 6.56399 8.70815 6.32812 8.99963 6.32812C9.29111 6.32812 9.52697 6.56399 9.52697 6.85547V15.3633ZM12.69 6.88845L12.1626 15.3963C12.1453 15.6731 11.9146 15.9038 11.6034 15.8896C11.3129 15.8716 11.092 15.6213 11.11 15.3303L11.6374 6.82253C11.6554 6.53157 11.9103 6.3199 12.1966 6.32918C12.4871 6.34721 12.708 6.59749 12.69 6.88845Z" fill="#2EB565"/>
<path d="M15.8555 2.10938H12.6914V1.58203C12.6914 0.709664 11.9817 0 11.1094 0H6.89062C6.01826 0 5.30859 0.709664 5.30859 1.58203V2.10938H2.14453C1.56203 2.10938 1.08984 2.58156 1.08984 3.16406C1.08984 3.7465 1.56203 4.21875 2.14453 4.21875C6.9949 4.21875 11.0053 4.21875 15.8555 4.21875C16.438 4.21875 16.9102 3.7465 16.9102 3.16406C16.9102 2.58156 16.438 2.10938 15.8555 2.10938ZM11.6367 2.10938H6.36328V1.58203C6.36328 1.29108 6.59967 1.05469 6.89062 1.05469H11.1094C11.4003 1.05469 11.6367 1.29108 11.6367 1.58203V2.10938Z" fill="#2EB565"/>
</svg>
