<svg width="18" height="18" viewBox="0 0 18 18" fill="none" xmlns="http://www.w3.org/2000/svg">
<path d="M15.8251 2.1752C15.6158 1.96317 15.3665 1.79483 15.0916 1.67993C14.8167 1.56503 14.5218 1.50586 14.2239 1.50586C13.9259 1.50586 13.631 1.56503 13.3561 1.67993C13.0812 1.79483 12.8319 1.96317 12.6226 2.1752L11.1826 3.6377L14.3626 6.8177L15.8026 5.3777C16.0161 5.16989 16.1862 4.92176 16.3031 4.64769C16.4199 4.37362 16.4811 4.07907 16.4832 3.78115C16.4853 3.48322 16.4282 3.18785 16.3152 2.91216C16.2023 2.63648 16.0357 2.38598 15.8251 2.1752Z" fill="#2EB565"/>
<path d="M10.1178 4.70312L3.8253 10.9956C3.76889 11.0536 3.72092 11.1193 3.6828 11.1906L1.5978 15.3981C1.53731 15.5117 1.50706 15.6389 1.50996 15.7676C1.51285 15.8962 1.5488 16.0219 1.61433 16.1327C1.67987 16.2434 1.7728 16.3354 1.88417 16.3999C1.99555 16.4643 2.12163 16.499 2.2503 16.5006C2.36458 16.5011 2.47745 16.4754 2.5803 16.4256L6.7878 14.3406C6.85916 14.3025 6.9248 14.2545 6.9828 14.1981L13.2753 7.90562L10.1178 4.70312Z" fill="#2EB565"/>
<path d="M15.75 16.5H9C8.80109 16.5 8.61032 16.421 8.46967 16.2803C8.32902 16.1397 8.25 15.9489 8.25 15.75C8.25 15.5511 8.32902 15.3603 8.46967 15.2197C8.61032 15.079 8.80109 15 9 15H15.75C15.9489 15 16.1397 15.079 16.2803 15.2197C16.421 15.3603 16.5 15.5511 16.5 15.75C16.5 15.9489 16.421 16.1397 16.2803 16.2803C16.1397 16.421 15.9489 16.5 15.75 16.5Z" fill="#2EB565"/>
</svg>
