<svg width="14" height="14" viewBox="0 0 14 14" fill="none" xmlns="http://www.w3.org/2000/svg">
<path d="M1.32713 13.9118C0.983892 13.9318 0.646328 13.8177 0.385622 13.5936C-0.128541 13.0764 -0.128541 12.241 0.385622 11.7238L11.6441 0.465256C12.1789 -0.0351511 13.018 -0.00733381 13.5184 0.527441C13.9709 1.01104 13.9973 1.75433 13.5802 2.26876L2.25537 13.5936C1.99803 13.8145 1.66588 13.9283 1.32713 13.9118Z" fill="#EF3826"/>
<path d="M12.5723 13.9119C12.2244 13.9104 11.891 13.7723 11.644 13.5273L0.385515 2.26874C-0.0908301 1.71248 -0.0260685 0.875341 0.530192 0.398952C1.02667 -0.0262131 1.75887 -0.0262131 2.25531 0.398952L13.5801 11.6575C14.1148 12.158 14.1424 12.9972 13.6419 13.5319C13.622 13.5531 13.6014 13.5737 13.5801 13.5936C13.3028 13.8347 12.9379 13.95 12.5723 13.9119Z" fill="#EF3826"/>
</svg>
