<svg width="20" height="20" viewBox="0 0 20 20" fill="none" xmlns="http://www.w3.org/2000/svg">
<path d="M10.0001 3.4375C5.77512 3.4375 1.87512 5.9 0.0626465 9.71874C-0.0186035 9.89998 -0.0186035 10.1125 0.0626465 10.2875C1.88138 14.1 5.78137 16.5625 10.0001 16.5625C14.2189 16.5625 18.1189 14.1 19.9376 10.2875C20.0189 10.1125 20.0189 9.89997 19.9376 9.71874C18.1251 5.9 14.2251 3.4375 10.0001 3.4375ZM10.0001 13.9625C7.81888 13.9625 6.03764 12.1812 6.03764 10C6.03764 7.81876 7.81888 6.03748 10.0001 6.03748C12.1814 6.03748 13.9626 7.81876 13.9626 10C13.9626 12.1812 12.1814 13.9625 10.0001 13.9625Z" fill="#2EB565"/>
<path d="M10 12.625C11.4497 12.625 12.625 11.4497 12.625 10C12.625 8.55025 11.4497 7.375 10 7.375C8.55025 7.375 7.375 8.55025 7.375 10C7.375 11.4497 8.55025 12.625 10 12.625Z" fill="#2EB565"/>
</svg>
